<svg width="320" height="320" viewBox="0 0 320 320" fill="none" xmlns="http://www.w3.org/2000/svg">
<path d="M320 160C320 248.366 248.366 320 160 320C71.6344 320 0 248.366 0 160C0 71.6344 71.6344 0 160 0C248.366 0 320 71.6344 320 160Z" fill="#042F2E"/>
<path d="M37.0703 90.3516C41.237 91.3932 45.2083 92.1745 48.9844 92.6953C52.7604 93.2161 56.0807 93.6068 58.9453 93.8672C62.3307 94.2578 65.4557 94.388 68.3203 94.2578C71.9661 94.2578 76.5234 93.9323 81.9922 93.2812C87.5911 92.6302 93.3203 92.0443 99.1797 91.5234C105.039 90.8724 110.638 90.4818 115.977 90.3516C121.445 90.0911 125.872 90.4167 129.258 91.3281C132.643 92.1094 136.094 93.3464 139.609 95.0391C143.255 96.6016 146.576 98.6198 149.57 101.094C152.565 103.438 155.039 106.237 156.992 109.492C158.945 112.617 160.052 116.198 160.312 120.234C160.182 125.312 159.01 130.065 156.797 134.492C154.974 138.268 151.914 142.174 147.617 146.211C143.32 150.117 137.135 153.112 129.062 155.195C133.099 155.716 136.549 156.628 139.414 157.93C142.409 159.102 144.948 160.534 147.031 162.227C149.245 163.789 151.003 165.547 152.305 167.5C153.737 169.453 154.844 171.406 155.625 173.359C157.578 177.917 158.49 182.995 158.359 188.594C157.578 195.885 156.081 201.68 153.867 205.977C151.784 210.273 149.375 213.594 146.641 215.938C143.906 218.281 141.107 219.909 138.242 220.82C135.378 221.732 132.773 222.448 130.43 222.969C128.086 223.49 125.221 223.75 121.836 223.75C118.451 223.75 114.805 223.685 110.898 223.555C107.122 223.294 103.216 223.099 99.1797 222.969C95.1432 222.708 91.3021 222.708 87.6562 222.969C84.6615 223.229 81.0156 223.49 76.7188 223.75C73.0729 224.01 68.5156 224.336 63.0469 224.727C57.5781 224.987 51.1979 225.312 43.9062 225.703C45.3385 224.661 46.5104 223.49 47.4219 222.188C48.4635 220.755 49.3099 219.518 49.9609 218.477C50.612 217.174 51.1979 215.938 51.7188 214.766C52.1094 213.724 52.4349 210.859 52.6953 206.172C52.9557 201.484 53.151 195.885 53.2812 189.375C53.4115 182.734 53.4766 175.638 53.4766 168.086C53.6068 160.404 53.5417 153.047 53.2812 146.016C53.151 138.854 52.8906 132.539 52.5 127.07C52.2396 121.471 51.849 117.435 51.3281 114.961C50.5469 112.227 49.5052 109.427 48.2031 106.562C47.1615 104.089 45.6641 101.419 43.7109 98.5547C41.888 95.6901 39.6745 92.9557 37.0703 90.3516ZM78.2812 110.273C78.2812 110.794 78.3464 112.552 78.4766 115.547C78.6068 118.151 78.737 122.188 78.8672 127.656C79.1276 132.995 79.4531 140.612 79.8438 150.508C83.099 151.94 86.2891 152.721 89.4141 152.852C92.5391 152.852 95.3385 152.721 97.8125 152.461C100.677 152.07 103.411 151.419 106.016 150.508C109.531 149.076 112.266 146.732 114.219 143.477C116.302 140.221 117.669 136.836 118.32 133.32C119.102 129.674 119.297 126.289 118.906 123.164C118.516 119.909 117.669 117.565 116.367 116.133C113.893 113.919 110.833 112.096 107.188 110.664C104.062 109.492 100.091 108.711 95.2734 108.32C90.5859 107.799 84.9219 108.451 78.2812 110.273ZM77.3047 202.852C82.1224 205.326 86.3542 206.953 90 207.734C93.6458 208.516 96.7057 208.906 99.1797 208.906C102.044 208.906 104.518 208.516 106.602 207.734C109.076 206.562 111.484 205 113.828 203.047C116.302 200.964 118.125 198.555 119.297 195.82C120.599 192.956 121.12 189.831 120.859 186.445C120.599 182.93 119.102 179.089 116.367 174.922C113.893 171.927 110.898 169.583 107.383 167.891C104.258 166.458 100.286 165.547 95.4688 165.156C90.7812 164.766 84.987 165.872 78.0859 168.477L77.3047 202.852Z" fill="white"/>
<path d="M242.734 88.9844C251.068 88.8542 257.904 90.3516 263.242 93.4766C268.711 96.6016 273.138 100.312 276.523 104.609C279.909 108.906 282.513 113.268 284.336 117.695C286.159 121.992 287.591 125.378 288.633 127.852C288.893 128.503 289.414 129.349 290.195 130.391C290.846 131.302 291.758 132.409 292.93 133.711C294.232 134.883 295.859 136.25 297.812 137.812C293.776 137.943 290.195 138.073 287.07 138.203C283.945 138.203 281.276 138.268 279.062 138.398C276.589 138.529 274.375 138.659 272.422 138.789C270.469 138.919 268.06 139.115 265.195 139.375C262.591 139.635 259.401 139.896 255.625 140.156C251.849 140.417 247.227 140.807 241.758 141.328C245.013 137.422 247.552 133.971 249.375 130.977C251.328 127.852 252.76 125.117 253.672 122.773C254.714 120.299 255.299 118.151 255.43 116.328C255.69 114.505 255.625 112.943 255.234 111.641C254.453 108.646 252.435 106.497 249.18 105.195C239.805 102.591 231.602 104.674 224.57 111.445C217.669 118.086 212.721 129.023 209.727 144.258C208.294 151.81 206.927 159.688 205.625 167.891C204.453 175.964 203.997 183.385 204.258 190.156C204.518 196.797 205.82 202.201 208.164 206.367C210.508 210.534 214.544 212.487 220.273 212.227C225.872 211.966 230.625 211.055 234.531 209.492C238.438 207.799 241.562 205.846 243.906 203.633C246.25 201.289 247.878 198.815 248.789 196.211C249.831 193.477 250.221 190.938 249.961 188.594C249.44 186.771 248.073 184.818 245.859 182.734C243.906 180.911 240.977 178.893 237.07 176.68C233.164 174.336 227.565 171.927 220.273 169.453C227.174 169.062 232.839 168.802 237.266 168.672C241.823 168.411 245.404 168.151 248.008 167.891C251.133 167.63 253.542 167.435 255.234 167.305C256.797 167.174 259.076 167.044 262.07 166.914C264.674 166.784 267.995 166.719 272.031 166.719C276.198 166.719 281.406 166.654 287.656 166.523C285.312 168.867 283.49 171.016 282.188 172.969C281.536 174.01 280.951 174.922 280.43 175.703C279.909 177.005 279.714 179.674 279.844 183.711C279.844 187.096 280.104 192.109 280.625 198.75C281.146 205.26 282.122 214.18 283.555 225.508L257.578 229.023L258.75 202.656C255.755 209.818 251.979 215.156 247.422 218.672C242.995 222.188 238.763 224.661 234.727 226.094C229.909 227.786 224.896 228.568 219.688 228.438C212.917 227.786 206.146 226.224 199.375 223.75C192.604 221.276 186.615 217.5 181.406 212.422C176.198 207.214 172.161 200.508 169.297 192.305C166.562 184.102 165.716 173.945 166.758 161.836C167.93 149.727 170.794 139.18 175.352 130.195C180.039 121.081 185.833 113.529 192.734 107.539C199.635 101.549 207.383 97.0573 215.977 94.0625C224.701 90.9375 233.62 89.2448 242.734 88.9844Z" fill="white"/>
</svg>
